<?xml version="1.0" encoding="UTF-8"?>
<svg width="16px" height="16px"  viewBox="0 0 16 16" version="1.1" xmlns="http://www.w3.org/2000/svg" xmlns:xlink="http://www.w3.org/1999/xlink">
    <!-- Generator: Sketch 60.1 (88133) - https://sketch.com -->
    <title>图标/导航/产品</title>
    <desc>Created with Sketch.</desc>
    <g id="图标/导航/产品" stroke="none" stroke-width="1" fill="none" fill-rule="evenodd" opacity="0.800000012">
        <g id="保险产品" transform="translate(1.000000, 1.000000)" fill="#fff">
            <path d="M3.12362951,0.00166486979 C1.39928928,0.00166486979 0.00154360937,1.39821668 0.00154360937,3.12117652 C0.00154360937,4.84400578 1.39928926,6.24055757 3.12362951,6.24055757 L6.24573407,6.24055757 L6.24573407,3.12117652 C6.24573407,1.39821668 4.84800704,0.00166486979 3.12362951,0.00166486979 Z M13.9984377,3.12117652 C13.9984377,1.39821668 12.6004869,0.00166486979 10.8758668,0.00166486979 C9.15173179,0.00166486979 7.75400478,1.39821668 7.75400478,3.12117652 L7.75400478,6.24055757 L10.8758668,6.24055757 C12.6004682,6.24055757 13.9984377,4.84400576 13.9984377,3.12117652 Z M8.31819559,3.12117652 C8.31819559,2.43868191 8.58425786,1.79720751 9.06735966,1.31455341 C9.55025626,0.831787396 10.1926634,0.565967609 10.8758668,0.565967609 C11.5592941,0.565967609 12.2017199,0.831787378 12.6850642,1.31455341 C13.1679421,1.79720751 13.4337806,2.43868191 13.4337806,3.12117652 C13.4337806,3.80354054 13.1679421,4.44503361 12.6850642,4.92766905 C12.2017199,5.41043506 11.5592755,5.67625485 10.8758668,5.67625485 L8.31819559,5.67625485 L8.31819559,3.12117652 Z M10.8758668,7.75944243 L7.75400478,7.75944243 L7.75400478,10.8788235 C7.75400478,12.6016527 9.15175043,13.9983351 10.8758668,13.9983351 C12.6004682,13.9983351 13.9984377,12.6016527 13.9984377,10.8788235 C13.9984377,9.15599422 12.6004682,7.75944243 10.8758668,7.75944243 Z M0.0015436276,10.8788235 C0.0015436276,12.6016527 1.39928928,13.9983351 3.12362952,13.9983351 C4.84798841,13.9983351 6.24573407,12.6016527 6.24573407,10.8788235 L6.24573407,7.75944243 L3.12362951,7.75944243 C1.39928928,7.75944243 0.0015436276,9.15597557 0.0015436276,10.8788235 Z" id="形状"></path>
        </g>
    </g>
</svg>