<?xml version="1.0" encoding="UTF-8"?>
<svg width="16px" height="16px" viewBox="0 0 16 16" version="1.1" xmlns="http://www.w3.org/2000/svg" xmlns:xlink="http://www.w3.org/1999/xlink">
    <!-- Generator: Sketch 60.1 (88133) - https://sketch.com -->
    <title>图标/导航/信息</title>
    <desc>Created with Sketch.</desc>
    <g id="图标/导航/信息" stroke="none" stroke-width="1" fill="none" fill-rule="evenodd" opacity="0.800000012">
        <g id="message" transform="translate(1.000000, 2.000000)" fill="#fff">
            <path d="M12.6,0 L1.4,0 C0.606666667,0 0,0.606666667 0,1.4 L0,8.4 C0,9.19333333 0.606666667,9.8 1.4,9.8 L2.33333333,9.8 L2.33333333,11.6666667 C2.33333333,11.8533333 2.42666667,11.9933333 2.56666667,12.0866667 C2.66,12.1333333 2.70666667,12.1333333 2.8,12.1333333 C2.89333333,12.1333333 2.98666667,12.0866667 3.08,12.04 L6.20666667,9.8 L12.6,9.8 C13.3933333,9.8 14,9.19333333 14,8.4 L14,1.4 C14,0.606666667 13.3933333,0 12.6,0 Z M7.93333333,7 L3.73333333,7 C3.45333333,7 3.26666667,6.81333333 3.26666667,6.53333333 C3.26666667,6.25333333 3.45333333,6.06666667 3.73333333,6.06666667 L7.93333333,6.06666667 C8.21333333,6.06666667 8.4,6.25333333 8.4,6.53333333 C8.4,6.81333333 8.21333333,7 7.93333333,7 Z M10.2666667,3.73333333 L3.73333333,3.73333333 C3.45333333,3.73333333 3.26666667,3.54666667 3.26666667,3.26666667 C3.26666667,2.98666667 3.45333333,2.8 3.73333333,2.8 L10.2666667,2.8 C10.5466667,2.8 10.7333333,2.98666667 10.7333333,3.26666667 C10.7333333,3.54666667 10.5466667,3.73333333 10.2666667,3.73333333 Z" id="形状"></path>
        </g>
    </g>
</svg>