<?xml version="1.0" encoding="UTF-8"?>
<svg width="16px" height="16px" viewBox="0 0 16 16" version="1.1" xmlns="http://www.w3.org/2000/svg" xmlns:xlink="http://www.w3.org/1999/xlink">
    <!-- Generator: Sketch 60.1 (88133) - https://sketch.com -->
    <title>图标/导航/公众</title>
    <desc>Created with Sketch.</desc>
    <g id="图标/导航/公众" stroke="none" stroke-width="1" fill="none" fill-rule="evenodd" opacity="0.800000012">
        <path d="M12.9165455,13.1087478 C13.0311873,12.8940578 13.0913982,12.6494953 13.0909091,12.4005249 L13.0909091,11.3472882 C13.0909091,9.80767308 11.8194545,8.47800551 9.98290909,7.86285928 C10.7179091,7.09305174 11.1818182,5.96143464 11.1818182,4.69895026 C11.1818182,3.93684079 11.0125455,3.22231941 10.7172727,2.60647339 C12.0428182,2.71564609 13.0909091,4.08100476 13.0909091,5.74868783 C13.0909091,6.83691577 12.6454545,7.79637591 11.9664545,8.36183455 C13.7298182,8.78172958 15,9.95953512 15,11.3472882 L15,12.4089228 C15,12.7954255 14.7150903,13.1087478 14.3636364,13.1087478 L12.9165455,13.1087478 L12.9165455,13.1087478 Z M5.90909091,7.5 C4.2524909,7.5 2.90909091,6.15709092 2.90909091,4.5 C2.90909091,2.84290908 4.2524909,1.5 5.90909091,1.5 C7.56569092,1.5 8.90909091,2.84290908 8.90909091,4.5 C8.90909091,6.15709092 7.56569092,7.5 5.90909091,7.5 Z M9.90909091,14.5 L2.27272727,14.5 C1.56981941,14.5 1,13.8733553 1,13.1003499 L1,12.0471132 C1,9.92104474 3.27945455,8.19807549 6.09090909,8.19807549 C8.90236363,8.19807549 11.1818182,9.92104474 11.1818182,12.0471132 L11.1818182,13.1003499 C11.1818182,13.8733553 10.6119988,14.5 9.90909091,14.5 Z" id="形状" fill="#fff"></path>
    </g>
</svg>