<?xml version="1.0" encoding="UTF-8"?>
<svg width="16px" height="16px" viewBox="0 0 16 16" version="1.1" xmlns="http://www.w3.org/2000/svg" xmlns:xlink="http://www.w3.org/1999/xlink">
    <!-- Generator: Sketch 60.1 (88133) - https://sketch.com -->
    <title>图标/导航/家财</title>
    <desc>Created with Sketch.</desc>
    <g id="图标/导航/家财" stroke="none" stroke-width="1" fill="none" fill-rule="evenodd">
        <path d="M8.353125,1.459375 C8.1578125,1.2640625 7.8421875,1.2640625 7.646875,1.459375 L1.2109375,7.890625 C1.0234375,8.078125 0.9171875,8.3328125 0.9171875,8.5984375 C0.9171875,9.15 1.365625,9.5984375 1.9171875,9.5984375 L2.5953125,9.5984375 L2.5953125,14.1875 C2.5953125,14.4640625 2.81875,14.6875 3.0953125,14.6875 L12.9046875,14.6875 C13.18125,14.6875 13.4046875,14.4640625 13.4046875,14.1875 L13.4046875,9.5984375 L14.0828125,9.5984375 C14.3484375,9.5984375 14.603125,9.49375 14.790625,9.3046875 C15.1796875,8.9140625 15.1796875,8.28125 14.7890625,7.890625 L8.353125,1.459375 Z" id="fill" fill="#fff" opacity="0.800000012"></path>
        <g id="推广赚钱" transform="translate(5.000000, 6.000000)" fill="#000" fill-rule="nonzero">
            <path d="M4.15714286,1.41428571 C5.14285714,1.41428571 5.87142857,1.07142857 6,0.728571429 L6,0.728571429 C6,0.3 5.14285714,0 4.15714286,0 C3.12857143,0 2.27142857,0.3 2.27142857,0.728571429 L2.27142857,0.728571429 C2.4,1.07142857 3.12857143,1.41428571 4.15714286,1.41428571 Z" id="路径"></path>
            <path d="M4.15714286,4.2 C4.02857143,4.2 3.85714286,4.2 3.72857143,4.15714286 L3.72857143,5.1 C3.85714286,5.1 4.02857143,5.1 4.15714286,5.1 C5.18571429,5.1 6,4.84285714 6,4.5 L6,3.72857143 C5.57142857,4.02857143 4.92857143,4.2 4.15714286,4.2 Z" id="路径"></path>
            <path d="M4.15714286,2.95714286 C4.02857143,2.95714286 3.85714286,2.95714286 3.72857143,2.91428571 L3.72857143,3.85714286 C3.85714286,3.85714286 4.02857143,3.9 4.15714286,3.9 C5.14285714,3.9 5.87142857,3.55714286 6,3.21428571 L6,2.48571429 C5.57142857,2.78571429 4.92857143,2.95714286 4.15714286,2.95714286 Z" id="路径"></path>
            <path d="M4.15714286,1.71428571 C3.34285714,1.71428571 2.7,1.5 2.27142857,1.24285714 L2.27142857,1.71428571 C3.12857143,1.8 3.9,2.1 3.94285714,2.65714286 C3.98571429,2.65714286 4.07142857,2.65714286 4.11428571,2.65714286 C5.1,2.65714286 5.82857143,2.31428571 5.95714286,1.97142857 L5.95714286,1.24285714 C5.57142857,1.5 4.92857143,1.71428571 4.15714286,1.71428571 Z" id="路径"></path>
            <path d="M1.84285714,3.34285714 C2.82857143,3.34285714 3.55714286,3 3.68571429,2.65714286 L3.68571429,2.65714286 C3.68571429,2.27142857 2.87142857,1.92857143 1.84285714,1.92857143 C0.857142857,1.97142857 0,2.27142857 0,2.65714286 L0,2.65714286 C0.128571429,3.04285714 0.857142857,3.34285714 1.84285714,3.34285714 Z" id="路径"></path>
            <path d="M1.84285714,4.71428571 C2.82857143,4.71428571 3.55714286,4.37142857 3.68571429,4.02857143 L3.68571429,3.25714286 C3.3,3.55714286 2.65714286,3.72857143 1.84285714,3.72857143 C1.02857143,3.72857143 0.428571429,3.55714286 0,3.25714286 L0,4.02857143 C0.128571429,4.37142857 0.857142857,4.71428571 1.84285714,4.71428571 Z" id="路径"></path>
            <path d="M1.84285714,5.1 C1.07142857,5.1 0.385714286,4.92857143 0,4.62857143 L0,5.4 C0,5.74285714 0.857142857,6 1.84285714,6 C2.82857143,6 3.68571429,5.74285714 3.68571429,5.4 L3.68571429,4.62857143 C3.3,4.88571429 2.65714286,5.1 1.84285714,5.1 Z" id="路径"></path>
        </g>
    </g>
</svg>