<?xml version="1.0" encoding="UTF-8"?>
<svg width="16px" height="16px" viewBox="0 0 16 16" version="1.1" xmlns="http://www.w3.org/2000/svg" xmlns:xlink="http://www.w3.org/1999/xlink">
    <!-- Generator: Sketch 60.1 (88133) - https://sketch.com -->
    <title>图标/导航/物业</title>
    <desc>Created with Sketch.</desc>
    <g id="图标/导航/物业" stroke="none" stroke-width="1" fill="none" fill-rule="evenodd">
        <path d="M8.353125,1.459375 C8.1578125,1.2640625 7.8421875,1.2640625 7.646875,1.459375 L1.2109375,7.890625 C1.0234375,8.078125 0.9171875,8.3328125 0.9171875,8.5984375 C0.9171875,9.15 1.365625,9.5984375 1.9171875,9.5984375 L2.5953125,9.5984375 L2.5953125,14.1875 C2.5953125,14.4640625 2.81875,14.6875 3.0953125,14.6875 L12.9046875,14.6875 C13.18125,14.6875 13.4046875,14.4640625 13.4046875,14.1875 L13.4046875,9.5984375 L14.0828125,9.5984375 C14.3484375,9.5984375 14.603125,9.49375 14.790625,9.3046875 C15.1796875,8.9140625 15.1796875,8.28125 14.7890625,7.890625 L8.353125,1.459375 Z" id="fill" fill="#fff" opacity="0.800000012"></path>
        <path d="M7.93345657,7.47378601 C6.83151437,6.47174615 5.00186446,7.13450848 5.00186446,8.75370695 C5.00186446,10.9744487 7.93345657,12.2476267 7.93345657,12.2476267 C7.93345657,12.2476267 10.8650487,10.8646094 10.8650487,8.75370695 C10.8652261,7.13450848 9.23449363,6.4990729 7.93345657,7.47378601 L7.93345657,7.47378601 Z" id="路径" fill="#000" fill-rule="nonzero"></path>
    </g>
</svg>