<?xml version="1.0" encoding="UTF-8"?>
<svg width="16px" height="16px" viewBox="0 0 16 16" version="1.1" xmlns="http://www.w3.org/2000/svg" xmlns:xlink="http://www.w3.org/1999/xlink">
    <!-- Generator: Sketch 60.1 (88133) - https://sketch.com -->
    <title>图标/导航/用户</title>
    <desc>Created with Sketch.</desc>
    <g id="图标/导航/用户" stroke="none" stroke-width="1" fill="none" fill-rule="evenodd" opacity="0.800000012">
        <path d="M4.63981692,9.35380145 C5.59445153,10.1211525 6.78360369,10.5490141 8.03552635,10.5490141 C9.2730641,10.5490141 10.4508827,10.1307772 11.4011583,9.3778632 L11.4011583,9.3778632 C13.8675156,10.3167089 15,13.5335458 15,15 L15,15 L1,15 C1,13.5204212 2.12376623,10.280835 4.63981692,9.35380145 Z M8.03552635,1 C10.2878538,1 12.113429,2.83219274 12.113429,5.0926846 C12.113429,7.35273897 10.2878538,9.1853692 8.03552635,9.1853692 C5.78319892,9.1853692 3.95762369,7.35317646 3.95762369,5.0926846 C3.95762369,2.83263023 5.78319892,1 8.03552635,1 Z" id="形状结合" fill="#fff"></path>
    </g>
</svg>