<?xml version="1.0" encoding="UTF-8"?>
<svg width="16px" height="16px" viewBox="0 0 16 16" version="1.1" xmlns="http://www.w3.org/2000/svg" xmlns:xlink="http://www.w3.org/1999/xlink">
    <!-- Generator: Sketch 60.1 (88133) - https://sketch.com -->
    <title>图标/导航/钱包</title>
    <desc>Created with Sketch.</desc>
    <g id="图标/导航/钱包" stroke="none" stroke-width="1" fill="none" fill-rule="evenodd" opacity="0.800000012">
        <g id="财务" transform="translate(1.000000, 1.000000)" fill="#fff">
            <path d="M13.979968,12.0956276 C13.979968,12.2906996 13.94664,12.4728276 13.879904,12.6422036 C13.813168,12.8115636 13.71824,12.9603796 13.595104,13.0886996 C13.47192,13.2170516 13.32816,13.3171156 13.163936,13.3889076 C12.999776,13.4607796 12.820128,13.4966836 12.625056,13.4966836 L1.447248,13.4966836 C1.252256,13.4966836 1.067472,13.4607796 0.89296,13.3889076 C0.718512,13.3171156 0.56456,13.2170516 0.431104,13.0886996 C0.297632,12.9603636 0.192416,12.8115476 0.115488,12.6422036 C0.038464,12.4728276 0,12.2906836 0,12.0956276 L0,4.41276356 C0,4.02277956 0.135952,3.69175556 0.407968,3.41973956 C0.679984,3.14773956 1.011008,3.01169156 1.401072,3.01169156 L12.578896,3.01169156 C12.96896,3.01169156 13.299984,3.14773956 13.572,3.41973956 C13.844016,3.69175556 13.979968,4.02277956 13.979968,4.41276356 L13.979968,6.50673156 L10.484992,6.50673156 C10.094928,6.50673156 9.763904,6.64013956 9.491888,6.90700356 C9.219872,7.17388356 9.08392,7.50233156 9.08392,7.89239556 C9.094208,8.15925956 9.150656,8.39537156 9.253296,8.60065156 C9.335376,8.77516356 9.471408,8.93425156 9.661264,9.07791556 C9.851184,9.22159556 10.125776,9.29346756 10.484992,9.29346756 L13.979968,9.29346756 L13.979968,12.0956276 L13.979968,12.0956276 Z M11.886064,2.30345156 L4.896048,2.30345156 C5.450336,2.01610756 5.973808,1.73895556 6.46648,1.47209156 C6.897584,1.24625156 7.323616,1.02042756 7.744448,0.794603558 C8.165264,0.568843558 8.493728,0.394331558 8.729824,0.271131558 C9.089056,0.0761395577 9.409808,-0.0137164423 9.692112,0.00169155771 C9.97432,0.0170995577 10.212992,0.0658515577 10.407984,0.147931558 C10.633824,0.260843558 10.82888,0.409659558 10.99312,0.594459558 L11.886064,2.30345156 Z M9.792176,7.89239556 C9.792176,7.69740356 9.858896,7.53317956 9.992304,7.39969156 C10.125792,7.26628356 10.290016,7.19956356 10.485008,7.19956356 C10.68,7.19956356 10.844224,7.26628356 10.977712,7.39969156 C11.11112,7.53316356 11.17784,7.69740356 11.17784,7.89239556 C11.17784,8.08738756 11.11112,8.25418756 10.977712,8.39279556 C10.844224,8.53132356 10.68,8.60065156 10.485008,8.60065156 C10.290016,8.60065156 10.125792,8.53133956 9.992304,8.39279556 C9.858896,8.25418756 9.792176,8.08738756 9.792176,7.89239556 L9.792176,7.89239556 Z" id="形状"></path>
        </g>
    </g>
</svg>