<?xml version="1.0" encoding="UTF-8"?>
<svg width="16px" height="16px" viewBox="0 0 16 16" version="1.1" xmlns="http://www.w3.org/2000/svg" xmlns:xlink="http://www.w3.org/1999/xlink">
    <!-- Generator: Sketch 60.1 (88133) - https://sketch.com -->
    <title>图标/导航/雇主</title>
    <desc>Created with Sketch.</desc>
    <g id="图标/导航/雇主" stroke="none" stroke-width="1" fill="none" fill-rule="evenodd" opacity="0.800000012">
        <g id="公司-(1)" transform="translate(1.000000, 1.000000)" fill="#fff">
            <path d="M0,1.4 L0,14 L9.1,14 L9.1,1.4 L7,0 L0,1.4 Z M5.25,12.46 L1.05,12.46 L1.05,11.2 L5.25,11.13 L5.25,12.46 Z M5.25,9.66 L1.05,9.73 L1.05,8.47 L5.25,8.19 L5.25,9.66 Z M5.25,6.65 L1.05,6.93 L1.05,5.67 L5.25,5.18 L5.25,6.65 Z M5.25,3.57 L1.05,4.13 L1.05,2.8 L5.25,1.96 L5.25,3.57 Z M12.6,12.6 L12.6,1.4 L10.5,0 L9.45,0 L10.5,0.7 L10.5,14 L14,14 L14,12.6 L12.6,12.6 Z" id="形状"></path>
        </g>
    </g>
</svg>